<svg width="40" height="40" viewBox="0 0 40 40" fill="none" xmlns="http://www.w3.org/2000/svg">
<path fill-rule="evenodd" clip-rule="evenodd" d="M31.5018 7.10044C31.6999 7.10343 31.8585 7.12057 31.9784 7.14048C32.0383 7.15042 32.0882 7.16102 32.1284 7.1708C32.1485 7.17569 32.1661 7.18037 32.1813 7.18465L32.2022 7.19075L32.2113 7.19354L32.2154 7.19485L32.2174 7.19549L32.2184 7.19581C32.2187 7.19588 32.2194 7.19612 31.9436 8.05282C31.9436 8.05282 31.795 8.00497 31.4882 8.00033C30.7042 7.98855 28.8831 8.25898 25.8426 10.3268C24.1855 9.90596 22.4223 9.69829 20.6561 9.69829C18.7128 9.69829 16.7489 9.94904 14.9175 10.4595C10.5522 7.43345 8.62535 8.05359 8.62535 8.05359C8.34961 7.19687 8.35049 7.19658 8.35138 7.1963L8.35319 7.19572L8.35696 7.19454L8.36505 7.19204L8.38348 7.18661C8.39676 7.18281 8.41203 7.17868 8.4293 7.17435C8.46385 7.1657 8.50633 7.15627 8.55683 7.14716C8.65794 7.12891 8.79056 7.11202 8.9554 7.10483C9.28569 7.09042 9.74039 7.11517 10.3255 7.2423C11.4335 7.48305 13.0019 8.08912 15.0835 9.48356C16.8807 9.02303 18.7801 8.79829 20.6561 8.79829C22.3533 8.79829 24.0529 8.9827 25.671 9.3589C28.624 7.41837 30.5183 7.08565 31.5018 7.10044ZM7.29016 26.8303C7.29016 26.8303 7.24515 26.7531 7.19569 26.6488C7.05135 26.3589 6.92294 26.0588 6.80744 25.7496C6.78369 25.7017 6.77367 25.6831 6.76633 25.6635C6.75854 25.6427 6.75378 25.6207 6.7388 25.5613C6.21455 24.0676 5.99998 22.3494 5.99998 20.4337C5.99998 17.8961 6.90255 15.8256 8.38103 14.2042C8.14477 13.6165 7.36745 11.25 8.62535 8.05359L8.34961 7.19687C8.09283 7.27951 7.88665 7.47299 7.78786 7.72401C6.65429 10.6045 7.03318 12.8936 7.36218 14.0061C5.9495 15.723 5.09998 17.8701 5.09998 20.4337C5.09998 22.3943 5.31694 24.208 5.87559 25.8192C5.8786 25.8313 5.88156 25.8431 5.88361 25.851C5.88985 25.8751 5.90143 25.9187 5.92001 25.9697C5.93922 26.0224 5.95893 26.064 5.97092 26.0887C5.97362 26.0942 5.97736 26.1018 5.98136 26.1098C6.10128 26.4268 6.23522 26.7384 6.38637 27.0426C6.4178 27.1084 6.44726 27.165 6.46928 27.2058C6.48087 27.2273 6.49071 27.245 6.49812 27.2582L6.50122 27.2636C8.16716 30.4073 11.4087 32.3017 16.74 32.8856C16.7722 32.8892 16.8046 32.891 16.837 32.891L24.6547 32.9C24.6852 32.9 24.7157 32.8985 24.746 32.8955C27.5757 32.6103 29.7536 31.9966 31.4062 31.0367C33.0799 30.0646 34.1743 28.7603 34.8581 27.1839L34.9386 26.9938L34.9435 26.982C35.0801 26.6464 35.1922 26.3081 35.4688 25.3096C35.7797 24.1872 35.9 22.3573 35.9 20.4329C35.9 17.6361 34.9285 15.3353 33.3264 13.546C33.6055 12.3241 33.7754 10.25 32.7811 7.72325C32.6823 7.47224 32.4762 7.27877 32.2194 7.19612L31.9436 8.05282C33.0037 10.7467 32.6178 12.8509 32.3289 13.7985C33.982 15.475 35 17.6788 35 20.4329C35 22.3532 34.8768 24.0751 34.6015 25.0693C34.3261 26.0636 34.2254 26.3589 34.1099 26.6428L34.0324 26.8258C32.8134 29.636 30.1683 31.4445 24.6558 32L16.838 31.991C11.669 31.4248 8.76387 29.6217 7.29016 26.8303ZM20.7469 18.3681C19.8707 18.3681 19.0226 18.2979 18.2182 18.2313C16.0475 18.0515 14.1943 17.898 12.9631 19.2216C11.9514 20.3102 11.3607 21.6219 11.3607 23.0346C11.3607 28.9349 15.5624 29.8549 20.7469 29.8549C25.9305 29.8549 30.1331 29.6743 30.1331 23.0346C30.1331 21.6125 29.5336 20.2921 28.5093 19.1991C27.6907 18.3264 26.6003 18.1044 25.3274 18.1072C24.6887 18.1086 24.004 18.1666 23.2844 18.2275C22.4773 18.2959 21.6262 18.368 20.7469 18.3681ZM27.8529 19.8149C28.7488 20.7709 29.2331 21.8792 29.2331 23.0346C29.2331 24.6067 28.9833 25.7127 28.5903 26.4991C28.2063 27.2677 27.6625 27.7787 26.9716 28.1346C26.2612 28.5006 25.3732 28.7133 24.3041 28.8281C23.2355 28.943 22.0464 28.955 20.7469 28.955C18.1612 28.955 16.0296 28.7153 14.5551 27.8754C13.8424 27.4694 13.285 26.9231 12.8972 26.1752C12.5048 25.4184 12.2607 24.4052 12.2607 23.0346C12.2607 21.8865 12.738 20.786 13.622 19.8346C14.203 19.2101 15.0134 19.0019 16.2636 19.0145C16.84 19.0203 17.4592 19.0716 18.1511 19.1288C18.2092 19.1336 18.2679 19.1385 18.3271 19.1433C19.0771 19.2051 19.896 19.2681 20.7469 19.2681C21.6209 19.268 22.4619 19.2002 23.2285 19.1355C23.2681 19.1321 23.3075 19.1288 23.3467 19.1255C24.0793 19.0635 24.7292 19.0085 25.3294 19.0072C26.5132 19.0046 27.2901 19.2152 27.8529 19.8149ZM15.6718 19.1624H15.6729C16.6592 19.1636 17.3913 19.8352 17.8279 20.5751C18.2764 21.3351 18.5248 22.3262 18.5248 23.3729C18.5248 24.4197 18.2764 25.4113 17.828 26.1716C17.3915 26.9115 16.659 27.5841 15.6718 27.5841C14.6845 27.5841 13.9521 26.9115 13.5156 26.1716C13.0672 25.4112 12.8188 24.4197 12.8188 23.3729C12.8188 22.3261 13.0672 21.3347 13.5157 20.5745C13.9522 19.8347 14.6847 19.1624 15.6718 19.1624ZM26.1503 19.1624H26.1514C27.1377 19.1636 27.8698 19.8352 28.3064 20.5751C28.7549 21.3351 29.0033 22.3262 29.0033 23.3729C29.0033 24.4197 28.755 25.4113 28.3065 26.1716C27.8701 26.9115 27.1376 27.5841 26.1503 27.5841C25.1631 27.5841 24.4306 26.9115 23.9942 26.1716C23.5457 25.4112 23.2974 24.4197 23.2974 23.3729C23.2974 22.3261 23.5457 21.3347 23.9942 20.5745C24.4307 19.8347 25.1632 19.1624 26.1503 19.1624ZM15.6718 20.0624C14.5932 20.0624 13.7188 21.5442 13.7188 23.3729C13.7188 25.2018 14.5932 26.6841 15.6718 26.6841C16.7504 26.6841 17.6248 25.2018 17.6248 23.3729C17.6248 21.5444 16.7504 20.0637 15.6718 20.0624ZM26.1503 20.0624C25.0718 20.0624 24.1974 21.5442 24.1974 23.3729C24.1974 25.2018 25.0717 26.6841 26.1503 26.6841C27.2289 26.6841 28.1033 25.2018 28.1033 23.3729C28.1033 21.5444 27.229 20.0637 26.1503 20.0624Z" fill="#FEFCEC"/>
<path d="M31.4882 8.00036C30.7042 7.98857 28.8832 8.259 25.8426 10.3268C24.1855 9.90598 22.4223 9.69831 20.6561 9.69831C18.7128 9.69831 16.7489 9.94906 14.9175 10.4596C10.5522 7.43348 8.62537 8.05361 8.62537 8.05361C7.36747 11.25 8.14479 13.6165 8.38106 14.2043C6.90258 15.8257 6 17.8961 6 20.4337C6 22.3494 6.21458 24.0677 6.73883 25.5613C6.7679 25.6766 6.75848 25.6509 6.80746 25.7496C6.92296 26.0588 7.05138 26.359 7.19571 26.6488C7.24517 26.7531 7.29019 26.8303 7.29019 26.8303C8.7639 29.6217 11.6691 31.4249 16.838 31.991L24.6558 32C30.1683 31.4446 32.8135 29.636 34.0324 26.8258L34.1099 26.6428C34.2254 26.359 34.3261 26.0636 34.6015 25.0693C34.8769 24.0751 35 22.3532 35 20.4329C35 17.6788 33.9821 15.4751 32.3289 13.7985C32.6178 12.851 33.0037 10.7467 31.9436 8.05284C31.9436 8.05284 31.795 8.00499 31.4882 8.00036ZM25.3274 18.1072C26.6003 18.1044 27.6907 18.3265 28.5093 19.1992C29.5336 20.2921 30.1331 21.6125 30.1331 23.0346C30.1331 29.6744 25.9305 29.855 20.7469 29.855C15.5624 29.855 11.3607 28.9349 11.3607 23.0346C11.3607 21.6219 11.9514 20.3102 12.9631 19.2217C14.6507 17.4075 17.5066 18.3682 20.7469 18.3682C22.4102 18.3679 23.9724 18.1102 25.3274 18.1072ZM15.6718 20.0624C14.5932 20.0624 13.7188 21.5442 13.7188 23.3729C13.7188 25.2018 14.5932 26.6841 15.6718 26.6841C16.7504 26.6841 17.6248 25.2018 17.6248 23.3729C17.6248 21.5445 16.7505 20.0637 15.6718 20.0624ZM26.1504 20.0624C25.0718 20.0624 24.1974 21.5442 24.1974 23.3729C24.1974 25.2018 25.0717 26.6841 26.1504 26.6841C27.229 26.6841 28.1034 25.2018 28.1034 23.3729C28.1034 21.5445 27.229 20.0637 26.1504 20.0624Z" fill="url(#paint0_linear_136_4)"/>
<defs>
<linearGradient id="paint0_linear_136_4" x1="39.5" y1="43.5" x2="13.2494" y2="-4.13745" gradientUnits="userSpaceOnUse">
<stop offset="0.153485" stop-color="#4B3C16"/>
<stop offset="0.303858" stop-color="#EAD072"/>
<stop offset="0.567947" stop-color="#AE994E"/>
<stop offset="0.850922" stop-color="#534218"/>
<stop offset="0.981085" stop-color="#FFF2C2"/>
</linearGradient>
</defs>
</svg>
