<svg width="40" height="40" viewBox="0 0 40 40" fill="none" xmlns="http://www.w3.org/2000/svg">
<path d="M7.5887 13.797L7.58757 13.7959C7.24367 13.4542 6.97058 13.048 6.78396 12.6005C6.59733 12.1531 6.50084 11.6732 6.5 11.1884L6.5 11.1875C6.5 10.2077 6.89095 9.26973 7.58954 8.57836L7.58955 8.57835C8.28803 7.88716 9.2311 7.49963 10.2138 7.5L7.5887 13.797ZM7.5887 13.797C8.28749 14.487 9.22976 14.8742 10.2118 14.875C11.1961 14.8773 12.141 14.4889 12.8393 13.7953C13.1845 13.4545 13.4586 13.0486 13.6456 12.601C13.8327 12.1533 13.9289 11.6728 13.9288 11.1875L7.5887 13.797ZM12.8392 8.57836L12.8396 8.57873C13.5362 9.26957 13.9287 10.2071 13.9288 11.1873L12.8392 8.57836ZM12.8392 8.57836C12.1418 7.88812 11.1979 7.50006 10.214 7.5L12.8392 8.57836ZM16.2863 16.2113C16.0101 16.2113 15.7863 16.4351 15.7863 16.7113V33C15.7863 33.2761 16.0101 33.5 16.2863 33.5H21.2863C21.5624 33.5 21.7863 33.2761 21.7863 33V25.1087C21.7863 23.8347 22.0251 22.8758 22.4778 22.247C22.9096 21.6471 23.582 21.2838 24.6287 21.2838C24.9754 21.2838 25.2412 21.3622 25.4518 21.4943C25.6638 21.6272 25.8511 21.8341 26.0086 22.139C26.3324 22.766 26.5 23.7491 26.5 25.11V33C26.5 33.2761 26.7239 33.5 27 33.5H32C32.2761 33.5 32.5 33.2761 32.5 33V24.0037C32.5 21.5632 32.212 19.5451 31.2027 18.1382C30.162 16.6877 28.4449 15.9988 25.8888 15.9988C23.9496 15.9988 22.4248 16.6407 21.4287 17.5605V16.7113C21.4287 16.4351 21.2049 16.2113 20.9287 16.2113H16.2863ZM7.2125 32.7875C7.2125 33.0636 7.43636 33.2875 7.7125 33.2875H12.7125C12.9886 33.2875 13.2125 33.0636 13.2125 32.7875V16.4988C13.2125 16.2226 12.9886 15.9988 12.7125 15.9988H7.7125C7.43636 15.9988 7.2125 16.2226 7.2125 16.4988V32.7875Z" stroke="#FEFCEC" stroke-linejoin="round"/>
<path fill-rule="evenodd" clip-rule="evenodd" d="M16.2862 16.7113H20.9287V19.0238C21.5975 17.6938 23.3125 16.4988 25.8888 16.4988C30.8275 16.4988 32 19.1463 32 24.0038V33H27V25.11C27 22.3437 26.3313 20.7838 24.6288 20.7838C22.2675 20.7838 21.2862 22.465 21.2862 25.1088V33H16.2862V16.7113V16.7113ZM7.7125 32.7875H12.7125V16.4988H7.7125V32.7875V32.7875ZM13.4288 11.1875C13.4289 11.6066 13.3458 12.0215 13.1842 12.4082C13.0226 12.7949 12.7858 13.1456 12.4875 13.44C11.883 14.0408 11.0648 14.3771 10.2125 14.375C9.36174 14.3744 8.54539 14.039 7.94 13.4413C7.64276 13.1459 7.40673 12.7948 7.24543 12.408C7.08413 12.0213 7.00072 11.6065 7 11.1875C7 10.3413 7.3375 9.53125 7.94125 8.93375C8.54611 8.3352 9.3628 7.99963 10.2138 8C11.0663 8 11.8837 8.33625 12.4875 8.93375C13.09 9.53125 13.4288 10.3413 13.4288 11.1875Z" fill="url(#paint0_linear_136_2)"/>
<defs>
<linearGradient id="paint0_linear_136_2" x1="53.5" y1="4.5" x2="-5.5" y2="26" gradientUnits="userSpaceOnUse">
<stop offset="0.393615" stop-color="#4B3C16"/>
<stop offset="0.415664" stop-color="#EAD072"/>
<stop offset="0.567947" stop-color="#AE994E"/>
<stop offset="0.812853" stop-color="#534218"/>
<stop offset="0.917861" stop-color="#FFF2C2"/>
</linearGradient>
</defs>
</svg>
