<svg width="40" height="40" viewBox="0 0 40 40" fill="none" xmlns="http://www.w3.org/2000/svg">
<path fill-rule="evenodd" clip-rule="evenodd" d="M7.29927 17.694L32.1363 8.12502C33.2863 7.69402 34.2923 8.38002 33.9173 10.137L29.6923 30.062C29.3733 31.468 28.5423 31.818 27.3613 31.156L20.9233 26.412L17.8173 29.4C17.7277 29.4896 17.642 29.5753 17.5524 29.6531C17.2983 29.874 17.0136 30.031 16.5233 30.031L16.9863 23.475L28.9173 12.694C29.3315 12.3253 29.0125 12.0871 28.5144 12.2415C28.5128 12.2419 28.5112 12.2424 28.5097 12.2429C28.385 12.2821 28.2494 12.3458 28.1113 12.438L13.3613 21.726L7.01127 19.738C5.63027 19.307 5.60527 18.357 7.29927 17.694ZM22.4701 17.172L13.8941 22.5722C13.6461 22.7284 13.3422 22.7679 13.0625 22.6803L6.71335 20.6926C6.71327 20.6926 6.71343 20.6926 6.71335 20.6926C6.28376 20.5585 5.86869 20.3581 5.55017 20.0583C5.21687 19.7447 4.95627 19.2813 5.00598 18.7155C5.05284 18.182 5.35861 17.7695 5.68389 17.4826C6.01447 17.191 6.4448 16.9546 6.9348 16.7628L6.93975 16.7609L31.7853 7.18859C32.5941 6.88546 33.5821 6.9027 34.2942 7.59204C34.992 8.2676 35.1191 9.29708 34.8952 10.3458L30.6705 30.2695L30.6675 30.2833C30.4801 31.1091 30.0791 31.9226 29.2654 32.2942C28.4454 32.6686 27.5801 32.4251 26.8723 32.0283C26.8362 32.0081 26.8014 31.9856 26.7681 31.9611L21.0089 27.7173L18.5177 30.1138C18.512 30.1195 18.5062 30.1254 18.5002 30.1313C18.3438 30.2882 18.1049 30.5277 17.792 30.7093C17.4287 30.9203 17.0152 31.031 16.5233 31.031C16.2458 31.031 15.9808 30.9158 15.7917 30.7128C15.6025 30.5098 15.5062 30.2373 15.5258 29.9606L15.9888 23.4046C16.0069 23.1469 16.1242 22.9063 16.3158 22.7331L22.4701 17.172Z" fill="#FEFCEC"/>
<path d="M33.9172 10.137L29.6922 30.062C29.3732 31.468 28.5422 31.818 27.3612 31.156L20.9232 26.412L17.8172 29.4C17.4732 29.744 17.1862 30.031 16.5232 30.031L16.9862 23.475L28.9172 12.694C29.4362 12.232 28.8042 11.975 28.1112 12.438L13.3612 21.726L7.01124 19.738C5.63024 19.307 5.60524 18.357 7.29924 17.694L32.1362 8.12496C33.2862 7.69396 34.2922 8.37996 33.9172 10.137Z" fill="url(#paint0_linear_136_9)"/>
<defs>
<linearGradient id="paint0_linear_136_9" x1="8" y1="11.5" x2="26.5" y2="39" gradientUnits="userSpaceOnUse">
<stop offset="0.362857" stop-color="#4B3C16"/>
<stop offset="0.370506" stop-color="#EAD072"/>
<stop offset="0.567947" stop-color="#AE994E"/>
<stop offset="0.838542" stop-color="#534218"/>
<stop offset="0.921875" stop-color="#FFF2C2"/>
</linearGradient>
</defs>
</svg>
